<?xml version="1.0" encoding="UTF-8" ?>
<!DOCTYPE svg PUBLIC "-//W3C//DTD SVG 1.1//EN" "http://www.w3.org/Graphics/SVG/1.1/DTD/svg11.dtd">
<svg width="256pt" height="256pt" viewBox="0 0 256 256" version="1.1" xmlns="http://www.w3.org/2000/svg">
<g id="#333333ff">
<path fill="#333333" opacity="1.00" d=" M 121.39 13.63 C 129.63 12.67 137.89 13.92 146.05 15.03 C 175.68 19.36 203.03 36.12 220.98 60.00 C 236.18 79.97 244.25 104.99 244.45 130.02 C 244.17 155.49 235.69 180.90 219.94 200.98 C 202.34 223.78 176.01 239.78 147.53 244.36 C 137.49 246.01 127.22 247.14 117.10 245.52 C 90.22 243.08 64.38 230.84 45.49 211.57 C 26.27 192.35 14.26 166.16 12.20 139.06 C 10.87 130.71 11.91 122.27 12.91 113.95 C 15.61 94.05 23.61 74.90 35.90 59.02 C 52.77 37.02 77.68 21.27 104.93 15.91 C 110.37 14.83 115.89 14.27 121.39 13.63 M 56.41 45.35 C 41.60 58.03 29.70 74.61 23.71 93.23 L 24.01 93.73 L 23.33 94.02 C 19.91 103.02 18.30 112.63 17.51 122.20 C 17.18 126.46 17.12 130.74 17.34 135.02 C 17.99 146.58 20.28 158.05 24.35 168.90 C 25.35 171.39 26.38 173.87 27.48 176.31 C 33.12 188.34 40.83 199.42 50.34 208.71 C 68.06 226.29 91.92 237.62 116.78 240.01 C 118.67 240.17 120.56 240.35 122.45 240.54 C 123.63 240.56 124.81 240.58 125.99 240.60 C 127.38 240.60 128.77 240.60 130.16 240.60 C 131.33 240.58 132.50 240.55 133.67 240.52 C 135.54 240.34 137.42 240.17 139.29 240.02 C 153.15 238.67 166.74 234.59 179.08 228.14 C 204.74 214.94 224.72 191.26 233.55 163.80 C 234.72 159.88 235.80 155.93 236.67 151.93 C 238.40 142.97 239.14 133.85 238.81 124.74 C 238.02 111.09 234.96 97.56 229.44 85.04 C 226.14 77.96 222.42 71.02 217.68 64.80 C 198.97 38.56 168.20 21.49 136.06 19.28 C 107.46 17.10 78.20 26.69 56.41 45.35 Z" />
<path fill="#333333" opacity="1.00" d=" M 137.69 41.40 C 144.38 42.66 151.86 43.29 157.06 48.21 C 150.45 46.72 143.65 46.97 136.97 47.66 C 137.39 45.60 137.60 43.50 137.69 41.40 Z" />
<path fill="#333333" opacity="1.00" d=" M 152.81 85.71 C 156.78 89.53 159.78 94.39 161.36 99.66 C 161.73 101.51 162.41 104.25 160.33 105.33 C 158.23 106.20 156.16 104.81 154.20 104.20 C 153.18 104.95 152.17 105.74 151.07 106.37 C 147.88 106.84 145.15 104.16 141.95 104.69 C 139.15 105.20 136.34 104.50 134.00 102.91 C 129.56 100.00 125.45 96.46 122.29 92.17 C 128.54 95.37 133.75 101.22 141.02 102.01 C 140.04 99.01 138.72 96.15 137.40 93.29 C 141.41 96.80 144.45 102.24 150.12 103.18 C 150.20 99.42 148.26 96.10 146.98 92.69 C 151.10 95.94 154.04 100.85 159.26 102.52 C 160.06 96.13 155.13 91.22 152.81 85.71 Z" />
<path fill="#333333" opacity="1.00" d=" M 155.30 113.49 C 161.40 118.22 165.49 125.88 173.15 128.34 C 173.33 125.75 173.32 123.15 173.24 120.56 C 174.51 123.79 176.15 127.15 175.66 130.72 C 175.35 131.77 174.56 133.08 173.28 132.56 C 169.70 131.26 167.19 128.15 164.64 125.47 C 161.38 121.60 157.82 117.91 155.30 113.49 Z" />
<path fill="#333333" opacity="1.00" d=" M 157.84 130.94 C 168.62 136.91 178.35 144.82 189.69 149.73 C 188.57 147.85 187.38 146.03 186.12 144.24 C 190.59 148.40 195.75 152.16 198.65 157.67 C 196.16 156.91 193.79 155.79 191.61 154.35 C 181.71 148.03 172.05 141.35 162.41 134.64 C 160.79 133.52 159.28 132.26 157.84 130.94 Z" />
<path fill="#333333" opacity="1.00" d=" M 125.53 140.83 C 126.75 141.07 127.96 141.32 129.19 141.57 C 128.64 142.80 128.09 144.03 127.54 145.26 L 126.45 144.77 C 126.96 145.27 127.49 145.77 128.01 146.26 C 130.73 145.47 133.35 146.57 135.91 147.37 C 136.58 145.99 137.24 144.61 137.90 143.23 C 139.24 143.13 140.58 143.02 141.91 142.91 C 141.45 145.46 140.73 147.95 139.76 150.35 C 140.59 153.77 143.55 157.64 141.05 160.98 C 140.56 161.77 140.05 162.55 139.52 163.32 C 139.13 161.58 138.78 159.84 138.32 158.12 C 136.68 153.41 133.85 149.04 129.38 146.59 C 128.75 147.01 128.12 147.43 127.49 147.86 C 132.56 149.35 132.28 155.34 132.01 159.54 C 129.11 155.56 126.44 150.60 120.97 150.01 C 118.07 153.59 117.24 158.03 117.51 162.52 C 117.48 163.08 117.41 164.18 117.38 164.74 C 116.19 163.27 113.97 162.19 114.09 160.02 C 113.94 156.78 113.74 153.51 114.17 150.29 C 117.12 146.22 122.77 145.18 125.53 140.83 Z" />
<path fill="#333333" opacity="1.00" d=" M 181.38 158.05 C 185.41 162.00 188.09 167.05 191.89 171.21 C 191.79 169.97 191.59 167.50 191.48 166.27 C 194.47 170.60 196.60 175.48 197.94 180.56 C 194.48 179.45 192.89 175.88 190.81 173.20 C 187.64 168.18 183.86 163.48 181.38 158.05 Z" />
<path fill="#333333" opacity="1.00" d=" M 89.72 203.52 C 94.61 203.72 99.48 204.13 104.34 204.67 C 99.53 205.62 94.61 205.29 89.74 205.40 C 93.94 205.94 98.24 206.10 102.41 205.26 C 106.72 204.34 111.12 205.02 115.47 205.05 C 112.02 205.35 108.56 205.52 105.10 205.45 L 104.97 206.83 C 125.37 206.85 145.77 207.43 166.14 208.44 C 166.12 207.48 166.07 205.54 166.05 204.58 C 161.84 204.61 157.64 204.40 153.44 204.18 C 157.76 203.88 162.10 203.70 166.43 203.56 C 167.50 206.71 167.47 210.05 166.30 213.17 C 160.59 212.93 154.91 212.26 149.22 211.82 C 143.80 211.27 138.34 210.72 132.89 211.23 C 127.51 211.72 122.13 210.94 116.75 211.16 C 107.74 211.58 98.79 212.70 89.79 213.16 C 88.63 210.02 88.60 206.68 89.72 203.52 Z" />
</g>
<g id="#ccbb99ff">
<path fill="#ccbb99" opacity="1.00" d=" M 56.41 45.35 C 78.20 26.69 107.46 17.10 136.06 19.28 C 168.20 21.49 198.97 38.56 217.68 64.80 C 208.32 68.67 198.02 67.47 188.37 65.53 C 172.78 62.35 156.52 62.86 141.11 66.78 C 137.95 64.63 136.27 60.64 136.73 56.86 C 136.74 54.85 138.02 52.67 140.19 52.50 C 146.71 51.40 153.39 50.14 160.00 51.18 C 158.81 49.08 157.79 46.68 155.59 45.44 C 149.58 41.53 142.22 41.07 135.45 39.36 C 131.54 37.71 127.81 35.35 123.45 35.06 C 121.48 34.74 119.45 34.64 117.50 35.11 L 116.44 35.36 C 113.40 35.96 110.35 36.96 107.94 38.99 C 105.41 40.95 104.66 44.23 103.18 46.93 C 100.99 50.94 99.83 55.46 99.96 60.04 C 100.45 66.35 95.57 71.34 94.89 77.50 C 88.29 76.65 81.66 77.83 75.03 77.40 C 67.57 77.35 60.21 75.97 52.80 75.31 C 65.12 82.85 79.65 85.52 93.91 85.87 C 94.13 94.19 96.59 102.83 102.42 109.00 C 94.79 110.99 86.86 112.47 78.96 111.39 C 59.55 109.23 43.02 97.44 24.01 93.73 L 23.71 93.23 C 29.70 74.61 41.60 58.03 56.41 45.35 Z" />
<path fill="#ccbb99" opacity="1.00" d=" M 153.57 77.77 C 161.65 76.48 169.91 76.76 177.99 77.89 C 189.77 79.53 201.07 83.68 212.94 84.84 C 218.42 85.41 223.94 85.19 229.44 85.04 C 234.96 97.56 238.02 111.09 238.81 124.74 C 219.41 129.63 199.16 130.21 179.34 127.81 C 178.06 123.30 175.86 119.13 173.73 114.98 C 184.93 114.45 196.09 115.81 207.25 116.54 C 195.76 110.62 182.86 107.53 170.02 106.53 C 168.26 103.12 165.88 100.01 164.66 96.33 C 162.14 89.53 158.33 83.24 153.57 77.77 Z" />
<path fill="#ccbb99" opacity="1.00" d=" M 17.51 122.20 C 29.52 121.31 41.49 123.19 53.19 125.74 C 63.63 128.03 74.34 128.31 84.98 128.10 C 95.25 128.22 105.51 126.15 115.06 122.40 C 117.01 123.91 119.66 124.82 120.76 127.20 C 122.03 129.55 123.16 131.99 124.12 134.49 C 113.57 137.26 102.96 140.12 92.03 140.85 C 83.01 141.39 73.92 141.12 64.98 139.76 C 56.61 138.55 48.37 136.48 39.94 135.72 C 32.43 134.89 24.87 135.08 17.34 135.02 C 17.12 130.74 17.18 126.46 17.51 122.20 Z" />
<path fill="#ccbb99" opacity="1.00" d=" M 195.98 151.17 C 209.41 148.93 223.40 148.40 236.67 151.93 C 235.80 155.93 234.72 159.88 233.55 163.80 C 223.28 164.85 213.15 166.89 203.09 169.15 C 200.74 169.69 198.49 170.55 196.26 171.42 C 193.16 165.06 189.59 158.95 185.91 152.92 C 189.38 156.20 192.25 160.09 196.01 163.08 C 195.26 161.08 194.45 159.11 193.59 157.17 C 196.24 159.08 199.21 160.56 202.47 161.07 C 200.97 157.38 198.71 154.05 195.98 151.17 Z" />
<path fill="#ccbb99" opacity="1.00" d=" M 169.77 157.14 C 173.05 159.65 176.74 161.56 180.03 164.04 C 182.24 167.05 183.63 170.60 185.83 173.63 C 169.24 178.00 153.20 184.89 135.95 186.32 C 135.64 187.96 135.33 189.59 135.10 191.25 C 135.01 185.80 135.20 180.35 134.91 174.92 C 134.72 172.88 134.44 170.86 134.17 168.84 C 135.18 168.16 136.17 167.47 137.12 166.71 C 148.71 166.90 159.32 161.47 169.77 157.14 Z" />
<path fill="#ccbb99" opacity="1.00" d=" M 24.35 168.90 C 34.48 165.05 45.31 163.62 56.06 162.87 C 74.10 161.79 92.22 163.16 110.09 165.71 C 113.02 166.11 115.98 166.37 118.94 166.47 C 119.90 167.44 120.93 168.36 121.98 169.25 C 121.25 175.10 120.79 180.99 120.94 186.90 C 113.88 186.32 106.80 185.75 99.85 184.33 C 82.87 181.31 66.35 175.46 48.99 174.79 C 41.78 174.37 34.61 175.35 27.48 176.31 C 26.38 173.87 25.35 171.39 24.35 168.90 Z" />
</g>
<g id="#101010ff">
<path fill="#101010" opacity="1.00" d=" M 107.94 38.99 C 110.35 36.96 113.40 35.96 116.44 35.36 C 115.68 36.28 114.96 37.22 114.24 38.17 C 115.80 38.52 117.37 38.87 118.94 39.22 C 113.18 41.27 108.29 44.96 104.25 49.49 C 103.98 48.85 103.45 47.57 103.18 46.93 C 104.66 44.23 105.41 40.95 107.94 38.99 Z" />
</g>
<g id="#000000ff">
<path fill="#000000" opacity="1.00" d=" M 116.44 35.36 L 117.50 35.11 C 119.04 37.40 121.72 36.69 123.45 35.06 C 127.81 35.35 131.54 37.71 135.45 39.36 C 142.22 41.07 149.58 41.53 155.59 45.44 C 157.79 46.68 158.81 49.08 160.00 51.18 C 153.39 50.14 146.71 51.40 140.19 52.50 C 138.02 52.67 136.74 54.85 136.73 56.86 C 136.27 60.64 137.95 64.63 141.11 66.78 C 145.70 69.92 149.84 73.66 153.57 77.77 C 158.33 83.24 162.14 89.53 164.66 96.33 C 165.88 100.01 168.26 103.12 170.02 106.53 C 171.20 109.37 172.28 112.26 173.73 114.98 C 175.86 119.13 178.06 123.30 179.34 127.81 C 180.03 130.30 179.80 133.34 182.09 135.06 C 187.42 139.86 190.47 146.54 195.98 151.17 C 198.71 154.05 200.97 157.38 202.47 161.07 C 199.21 160.56 196.24 159.08 193.59 157.17 C 194.45 159.11 195.26 161.08 196.01 163.08 C 192.25 160.09 189.38 156.20 185.91 152.92 C 189.59 158.95 193.16 165.06 196.26 171.42 C 198.30 175.65 200.27 180.04 200.62 184.80 C 196.63 183.75 193.95 180.54 191.41 177.53 C 192.04 179.10 193.30 182.24 193.93 183.81 C 190.96 180.64 188.28 177.21 185.83 173.63 C 183.63 170.60 182.24 167.05 180.03 164.04 C 176.74 161.56 173.05 159.65 169.77 157.14 C 165.01 154.01 161.04 149.93 156.80 146.20 C 152.35 143.88 146.81 138.60 141.91 142.91 C 140.58 143.02 139.24 143.13 137.90 143.23 C 137.20 141.40 136.45 139.59 135.67 137.79 C 134.20 137.18 132.75 136.56 131.30 135.93 C 130.67 137.84 130.00 139.73 129.19 141.57 C 127.96 141.32 126.75 141.07 125.53 140.83 C 125.08 138.71 124.72 136.57 124.12 134.49 C 123.16 131.99 122.03 129.55 120.76 127.20 C 119.66 124.82 117.01 123.91 115.06 122.40 C 109.98 118.81 106.19 113.85 102.42 109.00 C 96.59 102.83 94.13 94.19 93.91 85.87 C 93.92 83.05 94.29 80.25 94.89 77.50 C 95.57 71.34 100.45 66.35 99.96 60.04 C 99.83 55.46 100.99 50.94 103.18 46.93 C 103.45 47.57 103.98 48.85 104.25 49.49 C 108.29 44.96 113.18 41.27 118.94 39.22 C 117.37 38.87 115.80 38.52 114.24 38.17 C 114.96 37.22 115.68 36.28 116.44 35.36 M 137.69 41.40 C 137.60 43.50 137.39 45.60 136.97 47.66 C 143.65 46.97 150.45 46.72 157.06 48.21 C 151.86 43.29 144.38 42.66 137.69 41.40 M 128.28 42.93 C 129.01 44.51 130.44 46.96 132.49 45.49 C 134.35 42.87 129.86 42.76 128.28 42.93 M 140.77 70.83 C 144.18 73.85 147.93 76.49 151.00 79.88 C 154.57 83.40 157.19 87.72 160.48 91.49 C 157.12 82.31 149.51 74.97 140.77 70.83 M 152.81 85.71 C 155.13 91.22 160.06 96.13 159.26 102.52 C 154.04 100.85 151.10 95.94 146.98 92.69 C 148.26 96.10 150.20 99.42 150.12 103.18 C 144.45 102.24 141.41 96.80 137.40 93.29 C 138.72 96.15 140.04 99.01 141.02 102.01 C 133.75 101.22 128.54 95.37 122.29 92.17 C 125.45 96.46 129.56 100.00 134.00 102.91 C 136.34 104.50 139.15 105.20 141.95 104.69 C 145.15 104.16 147.88 106.84 151.07 106.37 C 152.17 105.74 153.18 104.95 154.20 104.20 C 156.16 104.81 158.23 106.20 160.33 105.33 C 162.41 104.25 161.73 101.51 161.36 99.66 C 159.78 94.39 156.78 89.53 152.81 85.71 M 155.30 113.49 C 157.82 117.91 161.38 121.60 164.64 125.47 C 167.19 128.15 169.70 131.26 173.28 132.56 C 174.56 133.08 175.35 131.77 175.66 130.72 C 176.15 127.15 174.51 123.79 173.24 120.56 C 173.32 123.15 173.33 125.75 173.15 128.34 C 165.49 125.88 161.40 118.22 155.30 113.49 M 157.84 130.94 C 159.28 132.26 160.79 133.52 162.41 134.64 C 172.05 141.35 181.71 148.03 191.61 154.35 C 193.79 155.79 196.16 156.91 198.65 157.67 C 195.75 152.16 190.59 148.40 186.12 144.24 C 187.38 146.03 188.57 147.85 189.69 149.73 C 178.35 144.82 168.62 136.91 157.84 130.94 M 181.38 158.05 C 183.86 163.48 187.64 168.18 190.81 173.20 C 192.89 175.88 194.48 179.45 197.94 180.56 C 196.60 175.48 194.47 170.60 191.48 166.27 C 191.59 167.50 191.79 169.97 191.89 171.21 C 188.09 167.05 185.41 162.00 181.38 158.05 Z" />
<path fill="#000000" opacity="1.00" d=" M 121.98 169.25 C 124.69 170.56 127.74 170.88 130.72 170.64 C 128.38 171.80 126.01 172.90 123.57 173.84 C 127.39 173.34 131.27 173.64 134.91 174.92 C 135.20 180.35 135.01 185.80 135.10 191.25 C 135.10 195.99 134.53 200.70 133.95 205.41 C 130.05 205.81 126.11 205.82 122.20 205.42 C 121.41 199.28 120.78 193.10 120.94 186.90 C 120.79 180.99 121.25 175.10 121.98 169.25 M 124.63 179.86 C 127.81 180.35 131.25 179.87 134.07 181.76 C 134.04 180.32 134.01 178.90 133.99 177.47 C 130.85 178.21 127.71 178.93 124.63 179.86 M 125.13 187.11 C 128.21 187.07 131.49 186.74 134.06 188.77 C 134.03 187.15 134.01 185.53 134.00 183.92 C 130.96 184.74 127.94 185.66 125.13 187.11 M 124.64 193.82 C 127.85 194.14 131.38 193.80 134.06 195.96 C 134.02 194.35 134.00 192.75 133.99 191.15 C 130.85 191.97 127.73 192.84 124.64 193.82 Z" />
</g>
<g id="#343434ff">
<path fill="#343434" opacity="1.00" d=" M 117.50 35.11 C 119.45 34.64 121.48 34.74 123.45 35.06 C 121.72 36.69 119.04 37.40 117.50 35.11 Z" />
<path fill="#343434" opacity="1.00" d=" M 140.77 70.83 C 149.51 74.97 157.12 82.31 160.48 91.49 C 157.19 87.72 154.57 83.40 151.00 79.88 C 147.93 76.49 144.18 73.85 140.77 70.83 Z" />
<path fill="#343434" opacity="1.00" d=" M 130.72 170.64 C 131.89 170.08 133.04 169.48 134.17 168.84 C 134.44 170.86 134.72 172.88 134.91 174.92 C 131.27 173.64 127.39 173.34 123.57 173.84 C 126.01 172.90 128.38 171.80 130.72 170.64 Z" />
</g>
<g id="#2f2f2fff">
<path fill="#2f2f2f" opacity="1.00" d=" M 128.28 42.93 C 129.86 42.76 134.35 42.87 132.49 45.49 C 130.44 46.96 129.01 44.51 128.28 42.93 Z" />
</g>
<g id="#e8d9b9ff">
<path fill="#e8d9b9" opacity="1.00" d=" M 141.11 66.78 C 156.52 62.86 172.78 62.35 188.37 65.53 C 198.02 67.47 208.32 68.67 217.68 64.80 C 222.42 71.02 226.14 77.96 229.44 85.04 C 223.94 85.19 218.42 85.41 212.94 84.84 C 201.07 83.68 189.77 79.53 177.99 77.89 C 169.91 76.76 161.65 76.48 153.57 77.77 C 149.84 73.66 145.70 69.92 141.11 66.78 Z" />
<path fill="#e8d9b9" opacity="1.00" d=" M 52.80 75.31 C 60.21 75.97 67.57 77.35 75.03 77.40 C 81.66 77.83 88.29 76.65 94.89 77.50 C 94.29 80.25 93.92 83.05 93.91 85.87 C 79.65 85.52 65.12 82.85 52.80 75.31 Z" />
<path fill="#e8d9b9" opacity="1.00" d=" M 23.33 94.02 L 24.01 93.73 C 43.02 97.44 59.55 109.23 78.96 111.39 C 86.86 112.47 94.79 110.99 102.42 109.00 C 106.19 113.85 109.98 118.81 115.06 122.40 C 105.51 126.15 95.25 128.22 84.98 128.10 C 74.34 128.31 63.63 128.03 53.19 125.74 C 41.49 123.19 29.52 121.31 17.51 122.20 C 18.30 112.63 19.91 103.02 23.33 94.02 Z" />
<path fill="#e8d9b9" opacity="1.00" d=" M 170.02 106.53 C 182.86 107.53 195.76 110.62 207.25 116.54 C 196.09 115.81 184.93 114.45 173.73 114.98 C 172.28 112.26 171.20 109.37 170.02 106.53 Z" />
<path fill="#e8d9b9" opacity="1.00" d=" M 179.34 127.81 C 199.16 130.21 219.41 129.63 238.81 124.74 C 239.14 133.85 238.40 142.97 236.67 151.93 C 223.40 148.40 209.41 148.93 195.98 151.17 C 190.47 146.54 187.42 139.86 182.09 135.06 C 179.80 133.34 180.03 130.30 179.34 127.81 Z" />
<path fill="#e8d9b9" opacity="1.00" d=" M 17.34 135.02 C 24.87 135.08 32.43 134.89 39.94 135.72 C 48.37 136.48 56.61 138.55 64.98 139.76 C 73.92 141.12 83.01 141.39 92.03 140.85 C 102.96 140.12 113.57 137.26 124.12 134.49 C 124.72 136.57 125.08 138.71 125.53 140.83 C 122.77 145.18 117.12 146.22 114.17 150.29 C 113.74 153.51 113.94 156.78 114.09 160.02 C 113.97 162.19 116.19 163.27 117.38 164.74 C 117.77 165.17 118.55 166.03 118.94 166.47 C 115.98 166.37 113.02 166.11 110.09 165.71 C 92.22 163.16 74.10 161.79 56.06 162.87 C 45.31 163.62 34.48 165.05 24.35 168.90 C 20.28 158.05 17.99 146.58 17.34 135.02 Z" />
<path fill="#e8d9b9" opacity="1.00" d=" M 131.30 135.93 C 132.75 136.56 134.20 137.18 135.67 137.79 C 136.45 139.59 137.20 141.40 137.90 143.23 C 137.24 144.61 136.58 145.99 135.91 147.37 C 133.35 146.57 130.73 145.47 128.01 146.26 C 127.49 145.77 126.96 145.27 126.45 144.77 L 127.54 145.26 C 128.09 144.03 128.64 142.80 129.19 141.57 C 130.00 139.73 130.67 137.84 131.30 135.93 Z" />
<path fill="#e8d9b9" opacity="1.00" d=" M 141.91 142.91 C 146.81 138.60 152.35 143.88 156.80 146.20 C 161.04 149.93 165.01 154.01 169.77 157.14 C 159.32 161.47 148.71 166.90 137.12 166.71 C 137.93 165.58 138.74 164.46 139.52 163.32 C 140.05 162.55 140.56 161.77 141.05 160.98 C 143.55 157.64 140.59 153.77 139.76 150.35 C 140.73 147.95 141.45 145.46 141.91 142.91 Z" />
<path fill="#e8d9b9" opacity="1.00" d=" M 203.09 169.15 C 213.15 166.89 223.28 164.85 233.55 163.80 C 224.72 191.26 204.74 214.94 179.08 228.14 C 166.74 234.59 153.15 238.67 139.29 240.02 C 139.41 230.83 139.26 221.63 139.35 212.44 L 139.40 211.39 C 142.68 211.38 145.95 211.59 149.22 211.82 C 154.91 212.26 160.59 212.93 166.30 213.17 C 167.47 210.05 167.50 206.71 166.43 203.56 C 162.10 203.70 157.76 203.88 153.44 204.18 C 146.96 204.96 140.44 204.85 133.95 205.41 C 134.53 200.70 135.10 195.99 135.10 191.25 C 135.33 189.59 135.64 187.96 135.95 186.32 C 153.20 184.89 169.24 178.00 185.83 173.63 C 188.28 177.21 190.96 180.64 193.93 183.81 C 193.30 182.24 192.04 179.10 191.41 177.53 C 193.95 180.54 196.63 183.75 200.62 184.80 C 200.27 180.04 198.30 175.65 196.26 171.42 C 198.49 170.55 200.74 169.69 203.09 169.15 Z" />
<path fill="#e8d9b9" opacity="1.00" d=" M 27.48 176.31 C 34.61 175.35 41.78 174.37 48.99 174.79 C 66.35 175.46 82.87 181.31 99.85 184.33 C 106.80 185.75 113.88 186.32 120.94 186.90 C 120.78 193.10 121.41 199.28 122.20 205.42 C 119.96 205.20 117.72 205.06 115.47 205.05 C 111.12 205.02 106.72 204.34 102.41 205.26 C 98.24 206.10 93.94 205.94 89.74 205.40 C 94.61 205.29 99.53 205.62 104.34 204.67 C 99.48 204.13 94.61 203.72 89.72 203.52 C 88.60 206.68 88.63 210.02 89.79 213.16 C 98.79 212.70 107.74 211.58 116.75 211.16 L 116.74 212.44 C 116.75 221.63 116.69 230.82 116.78 240.01 C 91.92 237.62 68.06 226.29 50.34 208.71 C 40.83 199.42 33.12 188.34 27.48 176.31 Z" />
</g>
<g id="#dfac49ff">
<path fill="#dfac49" opacity="1.00" d=" M 127.49 147.86 C 128.12 147.43 128.75 147.01 129.38 146.59 C 133.85 149.04 136.68 153.41 138.32 158.12 C 139.32 164.30 132.86 169.55 126.99 168.74 C 122.88 168.63 120.16 165.21 117.51 162.52 C 117.24 158.03 118.07 153.59 120.97 150.01 C 126.44 150.60 129.11 155.56 132.01 159.54 C 132.28 155.34 132.56 149.35 127.49 147.86 Z" />
</g>
<g id="#9d7a32ff">
<path fill="#9d7a32" opacity="1.00" d=" M 138.32 158.12 C 138.78 159.84 139.13 161.58 139.52 163.32 C 138.74 164.46 137.93 165.58 137.12 166.71 C 136.17 167.47 135.18 168.16 134.17 168.84 C 133.04 169.48 131.89 170.08 130.72 170.64 C 127.74 170.88 124.69 170.56 121.98 169.25 C 120.93 168.36 119.90 167.44 118.94 166.47 C 118.55 166.03 117.77 165.17 117.38 164.74 C 117.41 164.18 117.48 163.08 117.51 162.52 C 120.16 165.21 122.88 168.63 126.99 168.74 C 132.86 169.55 139.32 164.30 138.32 158.12 Z" />
</g>
<g id="#2d2d2dff">
<path fill="#2d2d2d" opacity="1.00" d=" M 124.63 179.86 C 127.71 178.93 130.85 178.21 133.99 177.47 C 134.01 178.90 134.04 180.32 134.07 181.76 C 131.25 179.87 127.81 180.35 124.63 179.86 Z" />
<path fill="#2d2d2d" opacity="1.00" d=" M 125.13 187.11 C 127.94 185.66 130.96 184.74 134.00 183.92 C 134.01 185.53 134.03 187.15 134.06 188.77 C 131.49 186.74 128.21 187.07 125.13 187.11 Z" />
<path fill="#2d2d2d" opacity="1.00" d=" M 124.64 193.82 C 127.73 192.84 130.85 191.97 133.99 191.15 C 134.00 192.75 134.02 194.35 134.06 195.96 C 131.38 193.80 127.85 194.14 124.64 193.82 Z" />
</g>
<g id="#787878ff">
<path fill="#787878" opacity="1.00" d=" M 133.95 205.41 C 140.44 204.85 146.96 204.96 153.44 204.18 C 157.64 204.40 161.84 204.61 166.05 204.58 C 166.07 205.54 166.12 207.48 166.14 208.44 C 145.77 207.43 125.37 206.85 104.97 206.83 L 105.10 205.45 C 108.56 205.52 112.02 205.35 115.47 205.05 C 117.72 205.06 119.96 205.20 122.20 205.42 C 126.11 205.82 130.05 205.81 133.95 205.41 Z" />
</g>
<g id="#656565ff">
<path fill="#656565" opacity="1.00" d=" M 116.75 211.16 C 122.13 210.94 127.51 211.72 132.89 211.23 C 138.34 210.72 143.80 211.27 149.22 211.82 C 145.95 211.59 142.68 211.38 139.40 211.39 L 139.35 212.44 C 137.50 212.49 135.65 212.55 133.80 212.61 C 133.53 221.91 133.77 231.22 133.67 240.52 C 132.50 240.55 131.33 240.58 130.16 240.60 C 130.09 234.74 130.10 228.88 130.17 223.03 C 130.13 220.24 130.25 217.31 128.94 214.76 C 126.53 214.51 126.09 217.13 126.13 218.95 C 125.97 226.17 126.28 233.38 125.99 240.60 C 124.81 240.58 123.63 240.56 122.45 240.54 C 122.38 231.22 122.60 221.90 122.33 212.59 C 120.47 212.54 118.61 212.49 116.74 212.44 L 116.75 211.16 Z" />
</g>
<g id="#888888ff">
<path fill="#888888" opacity="1.00" d=" M 116.74 212.44 C 118.61 212.49 120.47 212.54 122.33 212.59 C 122.60 221.90 122.38 231.22 122.45 240.54 C 120.56 240.35 118.67 240.17 116.78 240.01 C 116.69 230.82 116.75 221.63 116.74 212.44 Z" />
<path fill="#888888" opacity="1.00" d=" M 133.80 212.61 C 135.65 212.55 137.50 212.49 139.35 212.44 C 139.26 221.63 139.41 230.83 139.29 240.02 C 137.42 240.17 135.54 240.34 133.67 240.52 C 133.77 231.22 133.53 221.91 133.80 212.61 Z" />
<path fill="#888888" opacity="1.00" d=" M 126.13 218.95 C 126.09 217.13 126.53 214.51 128.94 214.76 C 130.25 217.31 130.13 220.24 130.17 223.03 C 130.10 228.88 130.09 234.74 130.16 240.60 C 128.77 240.60 127.38 240.60 125.99 240.60 C 126.28 233.38 125.97 226.17 126.13 218.95 Z" />
</g>
</svg>
